<?xml version="1.0" encoding="utf-8"?>
<!-- Generator: Adobe Illustrator 24.3.0, SVG Export Plug-In . SVG Version: 6.00 Build 0)  -->
<svg version="1.1" id="Layer_1" xmlns="http://www.w3.org/2000/svg" xmlns:xlink="http://www.w3.org/1999/xlink" x="0px" y="0px"
	 viewBox="0 0 488.6 488.6" style="enable-background:new 0 0 488.6 488.6;" xml:space="preserve">
<style type="text/css">
	.st0{fill:#3AB6AF;}
	.st1{fill:#F29C11;}
	.st2{stroke:#3AB6AF;stroke-width:10;stroke-miterlimit:10;}
	.st3{stroke:#3AB6AF;stroke-width:3;stroke-miterlimit:10;}
	.st4{stroke:#3AB6AF;stroke-width:5;stroke-miterlimit:10;}
</style>
<ellipse transform="matrix(0.7071 -0.7071 0.7071 0.7071 -233.887 189.2669)" class="st0" cx="111.5" cy="377" rx="92" ry="128"/>
<path id="SVGCleanerId_0" class="st1" d="M270.8,217.9c-38.4-38.4-92.8-47.2-120.8-19.2c-5.6,5.6-9.6,12-12,20
	c-5.6,8-12,17.6-20.8,25.6c-8.8,8.8-20.8,12-31.2,13.6c-6.4,0-12.8,0.8-18.4,1.6c-0.8,0-1.6,0-2.4,0.8c-13.6,3.2-25.6,8.8-36,19.2
	c-36,35.2-24.8,104.8,25.6,154.4c49.6,49.6,119.2,60.8,155.2,24.8c9.6-9.6,16-22.4,19.2-36c0-0.8,0-1.6,0-1.6
	c0.8-6.4,1.6-12,1.6-19.2c1.6-10.4,4-22.4,13.6-31.2c8-8.8,18.4-14.4,26.4-20c7.2-2.4,14.4-6.4,20-12
	C318.8,310.7,310,256.3,270.8,217.9z"/>
<g>
	<path id="SVGCleanerId_0_1_" class="st2" d="M270.8,217.9c-38.4-38.4-92.8-47.2-120.8-19.2c-5.6,5.6-9.6,12-12,20
		c-5.6,8-12,17.6-20.8,25.6c-8.8,8.8-20.8,12-31.2,13.6c-6.4,0-12.8,0.8-18.4,1.6c-0.8,0-1.6,0-2.4,0.8c-13.6,3.2-25.6,8.8-36,19.2
		c-36,35.2-24.8,104.8,25.6,154.4c49.6,49.6,119.2,60.8,155.2,24.8c9.6-9.6,16-22.4,19.2-36c0-0.8,0-1.6,0-1.6
		c0.8-6.4,1.6-12,1.6-19.2c1.6-10.4,4-22.4,13.6-31.2c8-8.8,18.4-14.4,26.4-20c7.2-2.4,14.4-6.4,20-12
		C318.8,310.7,310,256.3,270.8,217.9z"/>
</g>
<path class="st2" d="M150,197.9c-5.6,5.6-9.6,12-12,20c-5.6,8.8-12,18.4-20.8,26.4c-8.8,8.8-20.8,12-31.2,13.6
	c-6.4,0-12.8,0.8-18.4,1.6c-0.8,0-1.6,0-2.4,0.8c-13.6,3.2-25.6,8.8-36,19.2c-16,16-23.2,39.2-20.8,64.8h276c1.6-1.6,4-3.2,5.6-4.8
	c28-28,19.2-82.4-20-120.8C232.4,178.7,178,169.9,150,197.9z"/>
<path d="M250.8,281.1c-8,8-20-6.4-28-13.6l-1.6-1.6c-8-8-21.6-20-13.6-28l176-162.4c8-8,20-8,28,0l1.6,1.6c8,8,8,20,0,28
	L250.8,281.1z"/>
<path class="st3" d="M429.2,103.5c-8,8-20,8-28,0l-16-16c-8-8-8-20,0-28l35.2-35.2c8-8,20-8,28,0l16,16c8,8,8,20,0,28L429.2,103.5z"
	/>
<g>
	<path class="st4" d="M258,273.9c-8,8-20-6.4-28-13.6l-1.6-2.4c-8-8-21.6-20-13.6-28l176-162.4c8-8,20-8,28,0l1.6,1.6c8,8,8,20,0,28
		L258,273.9z"/>
	<path class="st4" d="M436.4,96.3c-8,8-20,8-28,0l-16-16c-8-8-8-20,0-28l35.2-35.2c8-8,20-8,28,0l16,16c8,8,8,20,0,28L436.4,96.3z"
		/>
</g>
<circle class="st0" cx="182.8" cy="305.9" r="41.6"/>
<path d="M202,286.7c14.4,14.4,16,36.8,4,52.8c1.6-1.6,4-2.4,5.6-4c16-16,16-42.4,0-58.4s-42.4-16-58.4,0c-1.6,1.6-3.2,3.2-4,5.6
	C165.2,270.7,187.6,272.3,202,286.7z"/>
<path class="st0" d="M148.4,405.9c-4.8,4.8-5.6,12-10.4,7.2l-62.4-62.4c-4.8-4.8,2.4-5.6,7.2-10.4l0,0c4.8-4.8,12.8-4.8,17.6,0
	l48,48C153.2,393.1,153.2,401.1,148.4,405.9L148.4,405.9z"/>
<path class="st0" d="M151.6,401.9c-4.8,4.8-5.6,12-10.4,7.2l-62.4-62.4c-4.8-4.8,2.4-5.6,7.2-10.4l0,0c4.8-4.8,12.8-4.8,17.6,0
	l47.2,47.2C156.4,389.1,156.4,397.1,151.6,401.9L151.6,401.9z"/>
<g>
	<path class="st0" d="M425.2,11.5c-2.4,2.4-5.6,2.4-7.2,0l0,0c-2.4-2.4-2.4-5.6,0-7.2l2.4-2.4c2.4-2.4,5.6-2.4,7.2,0l0,0
		c2.4,2.4,2.4,5.6,0,7.2L425.2,11.5z"/>
	<path class="st0" d="M410.8,25.9c-2.4,2.4-5.6,2.4-7.2,0l0,0c-2.4-2.4-2.4-5.6,0-7.2l2.4-2.4c2.4-1.6,5.6-1.6,7.2,0l0,0
		c2.4,2.4,2.4,5.6,0,7.2L410.8,25.9z"/>
	<path class="st0" d="M395.6,41.1c-2.4,2.4-5.6,2.4-7.2,0l0,0c-2.4-2.4-2.4-5.6,0-7.2l2.4-2.4c2.4-2.4,5.6-2.4,7.2,0l0,0
		c2.4,2.4,2.4,5.6,0,7.2L395.6,41.1z"/>
	<path class="st0" d="M484.4,70.7c-2.4,2.4-5.6,2.4-7.2,0l0,0c-2.4-2.4-2.4-5.6,0-7.2l2.4-2.4c2.4-2.4,5.6-2.4,7.2,0l0,0
		c2.4,2.4,2.4,5.6,0,7.2L484.4,70.7z"/>
	<path class="st0" d="M470,85.1c-2.4,2.4-5.6,2.4-7.2,0l0,0c-2.4-2.4-2.4-5.6,0-7.2l2.4-2.4c2.4-2.4,5.6-2.4,7.2,0l0,0
		c2.4,2.4,2.4,5.6,0,7.2L470,85.1z"/>
	<path class="st0" d="M455.6,100.3c-2.4,1.6-5.6,1.6-7.2,0l0,0c-2.4-2.4-2.4-5.6,0-7.2l2.4-2.4c2.4-2.4,5.6-2.4,7.2,0l0,0
		c2.4,2.4,2.4,5.6,0,7.2L455.6,100.3z"/>
</g>
<path class="st0" d="M411.6,97.1c-0.8,0.8-1.6,0.8-2.4,0l-17.6-17.6c-0.8-0.8-0.8-1.6,0-2.4l0,0c0.8-0.8,1.6-0.8,2.4,0l17.6,17.6
	C411.6,95.5,411.6,96.3,411.6,97.1L411.6,97.1z"/>
<g>
	<circle class="st0" cx="377.2" cy="111.5" r="3.2"/>
	<circle class="st0" cx="346" cy="142.7" r="3.2"/>
	<circle class="st0" cx="280.4" cy="208.3" r="3.2"/>
	<path class="st0" d="M313.2,169.9c-1.6,1.6-3.2,1.6-4.8,0c-1.6-1.6-1.6-3.2,0-4.8s3.2-1.6,4.8,0S314.8,169.1,313.2,169.9z"/>
	<circle class="st0" cx="320.4" cy="177.9" r="3.2"/>
</g>
</svg>
