<?xml version="1.0" encoding="utf-8"?>
<!-- Generator: Adobe Illustrator 24.3.0, SVG Export Plug-In . SVG Version: 6.00 Build 0)  -->
<svg version="1.1" id="Layer_1" xmlns="http://www.w3.org/2000/svg" xmlns:xlink="http://www.w3.org/1999/xlink" x="0px" y="0px"
	 viewBox="0 0 2500 2500" style="enable-background:new 0 0 2500 2500;" xml:space="preserve">
<style type="text/css">
	.st0{fill-rule:evenodd;clip-rule:evenodd;fill:#151515;}
	.st1{fill-rule:evenodd;clip-rule:evenodd;}
	.st2{fill-rule:evenodd;clip-rule:evenodd;fill:#151515;stroke:#3AB6AF;stroke-width:10;stroke-miterlimit:10;}
	.st3{fill-rule:evenodd;clip-rule:evenodd;fill:#3AB6AF;}
	.st4{fill-rule:evenodd;clip-rule:evenodd;fill:#3AB6AF;stroke:#3AB6AF;stroke-width:10;stroke-miterlimit:10;}
</style>
<g>
	<path class="st0" d="M-10.8,0h2500v2500h-2500V0z"/>
	<path class="st1" d="M1257.5,111.2l24,0.5c1.4,8.9,0,17.9,0.5,27.3l-23.5,0.5c-2.8,8.5-0.9,18.3-0.9,27.3
		c11.8,3.8,23.5,8.5,32.5,18.8c15.5-2.4,29.6,5.6,37.2,19.8c7-10.3,18.8-17.4,32-17.4c11.8,0.9,23.1,6.1,29.7,16.9
		c2.4,5.2,4.2,10.3,5.7,16.5c9-7.9,21.5-10.6,32.9-7.1c8.9,3.3,19.8,10.8,23,21.2c1.9,5.2,0.9,10.3,2.3,16
		c11.3-4.2,25.9-4.7,37.2,3.3c11.3,9.4,16.5,25.4,12.2,40.5l0.9,0.9c13.7-2.4,26.3,4.2,34.8,15.5l1,0.5c7-14.1,22.1-21.6,38.1-19.3
		c9.4,2.3,20.7,7.1,25.4,17.4l4.2,10.4c11.3-8,30.1-8,42.4,0.9c9.9,8.5,15,20.2,13.6,33.9c10.8-4.7,24-6.6,35.8,0.5
		c10.6,6.8,17.1,18.5,17.4,31l-1.4,16c10.4-3.8,22.6-0.9,32,6.6c8,8.5,13.2,19.8,11.8,32.5c-0.9,5.6-4.2,10.3-5.7,15.5
		c11.3,0.5,21.6,7.5,28.2,18.4c4.7,8.9,5.2,22.6-0.5,32.5l-8.9,11.8c2.8,1.9,7.5,2.8,11.8,5.2c9.9,7.1,16,17.9,17.4,30.1
		c0.5,7.1-3.7,12.7-4.2,19.3c9.4,5.7,16.5,16.9,17.4,28.2c-0.5,7.1-3.3,13.2-6.1,19.3c8,14.6,8.9,37.6-1.9,51.3
		c-14.6,15.7-37.2,21.2-57.4,14.1c-17.9,17.9-42.8,26.4-66.3,22.6c-2.4,6.1-4.7,13.2-10.8,17c-5.7,2.3-11.8,3.3-17,1.9
		c-35.3-15.5-70.1-31.1-105.9-41.4c-102.1-37.6-214.1-57.9-324.6-55c-4.7,0.5-10.3,0.5-15.5,1.4c-125.6,7.5-240.9,40.9-351.9,88
		c-15.1,3.3-32.5,20.7-46.6,4.2c-2.7-4.1-4.3-8.8-4.7-13.6c-22.6,1.9-42.8-2.8-59.8-17.4c-18.8,3.8-41.4-0.9-54.1-17.9
		c-9.4-12.2-8-32-2.8-45.6c-9.9-8.9-15.1-21.6-10.3-34.3c2.9-8,8.5-14.7,16-18.8c-3.8-8.5-6.1-18.4-3.3-27.8
		c3.8-13.2,15-23.5,28.7-25.4l0.5-1.4c-8.9-10.3-18.4-22.1-13.2-36.7c3.3-13.6,16.5-24.5,30.1-25.9v-2.4c-7-9.9-7-25.4-0.9-35.3
		c6.1-13.2,18.8-19.3,32.9-18.4l8.5,0.9c-3.8-10.3-5.2-23,0.9-32.9c7-12.2,19.3-19.3,32.9-18.4c4.7-0.5,10.3,1.4,14.6,4.2
		c-0.5-9.4,0.9-18.4,5.6-25.4c8-12.7,24-18.4,38.6-15.5c4.2,0.9,8.5,2.8,12.2,5.6c3.8-7.1,6.1-15,13.2-20.2
		c9.4-8.5,23.5-10.8,36.2-6.1c7.1,2.8,14.1,8.9,18.4,16.5c8.9-8.9,19.3-15.1,32.9-12.2c0.5-4.7-1.9-9.9-1.4-14.6
		c0.5-12.7,8.5-24.5,20.7-30.1c9.9-5.2,23.5-3.8,33.9,0.9c-2.8-12.7,0.5-25.4,9.9-33.9c8.6-8.6,21-12.3,32.9-9.9
		c5.2,1.4,9.9,4.7,14.6,8c2.8-3.3,3.3-8.9,6.6-12.7c5.6-10.3,16-16.5,27.3-17.9c10.8-1.4,20.2,5.6,27.8,13.2
		c4.7-10.3,16-19.3,27.8-20.7c6.1-1.4,10.4,0.9,16.5,0c7.1-8.9,17.9-12.7,28.2-16.5l1.4-2.4v-25.9l-26.3-0.5c-0.5-8-1.4-17.9,0-26.8
		l24.9-0.5c2.8-8-0.9-17.9,2.3-24.9l26.8,0.5L1257.5,111.2L1257.5,111.2z"/>
	<path class="st2" d="M1251.4,116.8c6.6,0.9,16,0.5,24,0.5c0.9,5.2,0.9,11.8,0,16h-23.1l-1.4,2.8l0.5,35.3
		c8.5,3.8,18.8,4.7,26.8,11.3l9.9,9.4c9.7-2.4,20,0.2,27.3,7.1c4.2,4.7,7.1,10.3,8.5,16.9c1.4,0.5,4.3,1.4,6.6-0.5
		c2.3-11.3,13.2-20.2,24.9-21.6c8.9-0.9,17.4,2.8,24.5,8.5c7.5,7.1,8.5,17.9,8,28.2c7.1,6.6,7.1-6.6,14.1-7.5
		c6.6-4.2,15.6-4.7,24-3.3c6.1,2.8,14.1,8,17.4,15.1c4.7,8.9,2.8,21.2,0,30.6c3.8,0,6.1-5.2,10.8-7.1c8.5-6.6,22.1-5.2,31.5,0.9
		c8.9,6.1,12.7,16.5,12.2,27.8c-0.5,7.1-5.2,11.8-7.1,17.9l1.4,0.9c7.5-4.2,15.5-6.1,24.9-3.3c11.3,4.2,18.4,15.5,22.1,27.3
		c0.9,0.9,1.4-0.9,2.4-1.9c0.5-11.8,6.6-24,18.8-27.8c9.9-4.2,22.1-1.9,31.1,5.7c7,6.6,8.9,16.5,9.4,26.8l0.9,0.9
		c7.1-9.4,17.4-15.5,30.6-12.7c8.9,1.9,19.8,8.9,22.6,19.3c2.4,7.1,1.4,16.5-1.9,23.1c-0.5,2.3,1.9,2.8,3.7,4.2
		c6.1-5.2,13.2-10.3,22.6-10.3c9.9-0.4,19.4,4.4,24.9,12.7c7.1,11.8,6.1,29.6-1.9,40.5c-0.5,1.9,1.4,4.2,3.3,5.2
		c8-7.1,21.2-11.3,32-4.7c8.9,5.6,13.7,16,14.1,26.8c-1.9,9.4-5.2,18.8-12.7,24.5c-0.9,0.9,0,1.4,1.4,1.4
		c10.4-2.3,23.1,0.9,31.5,10.3c3.7,6.1,7.1,13.6,5.7,22.1c-1.9,10.3-12.2,17.9-16.5,27.3c1.4,5.7,8.9,1.9,13.6,5.2
		c9.4,2.3,16.5,13.2,18.8,22.6c-0.5,8.5-1.4,17.4-6.6,24v1.4c9.4,5.6,20.2,14.1,19.8,27.3c-0.9,6.6-3.7,12.7-7,17.9
		c6.1,10.3,9.4,24,6.1,37.2c-5.7,14.6-19.8,24.5-34.3,25.9c-9.9,0.5-17.9-0.9-25-4.2c-17.9,19.3-46.1,30.6-72,22.1
		c-2.4,1.9,0,5.6,0,9.4c-0.9,5.2-6.1,8.5-9.9,11.3l-7.5,0.5c-27.3-11.8-54.1-22.6-80.5-33.4c-67.3-23.5-135.5-44.2-206.6-54.6
		c-119.5-20.2-247.9-6.1-364.2,26.8C944.2,680,884.4,701.2,826.6,728c-5.7,0-10.8-4.2-14.1-8.5c-2.8-4.7-0.5-10.3,0-14.1
		c-22.6,4.2-48,0-65.4-17.4c-13.2,4.7-30.1,2.3-40.9-4.7c-11.3-7.5-16-18.8-16-31.5c0.5-8,2.8-14.6,6.1-21.2
		c-6.6-5.7-12.7-12.2-13.7-20.7c-1.4-11.8,5.7-21.2,15.1-26.8c1.4-1.4,4.7-0.9,5.7-3.8c-7.1-8-9.4-18.8-6.1-28.7
		c3.8-9.4,11.8-18.4,22.1-19.8c2.8-1.4,7.5,0.5,9.4-2.8c-2.8-8-10.8-14.1-14.1-21.2c-5.2-8.9-2.8-21.2,3.3-28.7
		c7.5-9.9,19.8-13.2,31.5-10.8c0.9,0.5,1.4-1.4,0.9-1.9c-8.9-6.6-15.1-17.4-12.7-29.2c1.4-9.9,7.5-19.8,17.4-23.5
		c11.3-4.7,24-1.4,33.4,6.1c11.3-5.6-4.7-8.5-4.7-14.6c-5.6-9.9-4.2-23.5,2.4-32.5c7.5-8.9,18.4-13.6,30.1-10.3
		c4.7,1.4,10.8,4.7,14.1,9.4c1.9-0.5,3.8-1.9,5.2-3.3c-5.2-8-5.2-18.8-1.4-27.3c6.1-11.3,18.4-16.9,30.6-16.5
		c8.9,0,16.5,6.1,22.6,12.7c3.3-3.8,0.5-9.9,2.8-14.1c3.3-10.3,12.2-19.8,23.5-21.2c10.8-1.5,21.6,3,28.2,11.8
		c3.3,3.8,3.8,8.9,7.1,12.7c3.8-6.6,9.4-13.2,16.9-16c8.5-5.2,19.8-2.3,28.7,1.9c1.9-1.4,0-3.8-0.9-5.2c-6.6-7.5-7.5-20.7-3.3-29.6
		c4.7-10.3,15.5-16.9,27.3-16.9c10.8,0.5,20.2,6.1,26.3,15.5c2.4,0.5,4.7-2.4,6.6-4.2c-7.1-8-11.3-17.9-8-28.7
		c1.9-10.8,11.3-19.3,21.2-21.6c9.4-3.3,19.8,0.5,27.3,7.1l8,9.9c3.8-3.3-0.5-10.8,2.3-15.5c2.3-10.3,9.4-19.8,20.2-23.5
		c8-3.3,18.4,0.5,25.4,7.1c4.2,2.8,5.6,8.5,9.4,12.2c3.3-5.7,4.2-13.7,9.9-18.8c8-8,21.2-12.2,33.4-7.5c9.4-9.9,21.6-17,35.3-19.3
		c0-12.7,0.9-25.4,0-38.1l-2.3-0.9H1210l-1.4-1.4l0.9-14.1l24.9-0.9c0.9-7.5,0-16,0.9-23.5c4.2-1.4,9.9-0.9,15.5-0.5L1251.4,116.8
		L1251.4,116.8z"/>
	<path class="st1" d="M1204.4,201.5c7.5,5.7,9.9,16.5,7.1,25.9c-4.2,8-12.2,15.1-20.7,16c-10.8-0.5-20.7-5.2-24.5-14.6
		c-2.3-5.7-3.3-12.2-0.5-17.9c2.8-8.5,10.8-14.1,19.8-15.1C1192.6,195.4,1198.2,197.3,1204.4,201.5z M1317.3,211.9
		c2.4,8.5,1,18.4-4.7,25.4c-5.2,4.2-11.3,7.1-18.3,7.1c-7.1,0-12.2-3.8-16.5-8.5c-5.8-6.4-7.4-15.5-4.2-23.5
		c3.3-8.9,12.7-16,22.6-15.5C1304.6,197.3,1314.5,202.9,1317.3,211.9L1317.3,211.9z M1380.8,213.8c1.9,6.1,2.4,13.6-0.5,19.8
		c-3.7,6.6-9.9,11.8-16.5,13.2c-9.4,1.9-18.8-1.9-24-8.9c-5.7-5.6-5.7-13.6-4.2-21.2c2.8-9.4,12.2-16.5,22.1-16.9
		C1366.2,199.6,1376.1,204.3,1380.8,213.8L1380.8,213.8z"/>
	<path class="st2" d="M1202,207.6c4.2,3.8,4.2,10.4,3.3,16c-1.6,4.9-4.9,9.1-9.4,11.8c-5.2,2.3-11.3,1.4-15.5-0.5
		c-4.2-1.9-7.4-5.5-8.9-9.9c-1.9-5.7-1.4-11.8,2.8-16.5C1180.4,199.6,1194,199.6,1202,207.6z M1309.3,209.5
		c3.3,3.8,4.2,9.4,3.3,15.1c-1.4,5.2-5.7,9.9-9.9,12.2c-5.7,0.9-10.8,2.8-15.1-0.5c-6.1-2.3-8.9-8-8.9-13.6c-1-6.6,0.5-12.2,6.1-16
		C1291.9,200.1,1302.7,202.5,1309.3,209.5L1309.3,209.5z M1371.9,211.4c2.8,3.8,4.7,8.9,4.2,14.6c-1.5,5.4-4.8,10-9.4,13.2
		c-4.7,2.8-10.4,1.9-14.6,0.9c-5.2-2.4-8.9-6.6-10.4-11.3c-1.9-7.1-0.5-15.1,6.6-19.3C1354.5,203.9,1365.8,204.8,1371.9,211.4z"/>
	<path class="st1" d="M1147.4,215.2c5.2,7,6.6,17.9,2.3,26.3c-5.2,6.1-11.3,11.3-18.8,11.8c-8.9,0.5-17.4-3.8-21.6-11.3
		c-3.8-5.2-4.2-12.7-2.8-18.8c2.8-9.4,12.2-16.5,22.1-17.4C1135.7,205.8,1142.3,209.5,1147.4,215.2z"/>
	<path class="st2" d="M1140.4,216.6c4.7,4.2,6.1,10.3,5.2,16.9c-0.9,5.2-5.6,10.4-9.9,12.7c-4.7,1.9-11.8,1.4-15.5-1.9
		c-4.7-3.3-8.5-8.5-8-14.6c0-6.6,3.3-12.7,9.9-16C1127.2,210.9,1135.7,211.4,1140.4,216.6L1140.4,216.6z"/>
	<path class="st1" d="M1439.1,238.7c2.4,6.1,2.4,14.1-0.5,19.8c-4.7,8.9-15.1,14.1-24.5,13.2c-7.5-0.9-14.6-5.7-17.9-12.2
		c-4.2-7.5-3.8-18.8,2.4-25.9c5.7-8,16.5-10.8,26.3-7.5C1430.2,228.3,1436.3,233,1439.1,238.7L1439.1,238.7z M1088.2,233.5
		c3.3,5.2,6.6,10.4,5.6,17.4c-0.9,7.1-4.7,13.6-10.3,17.9c-7.7,4.9-17.7,4.9-25.4,0c-7.8-4.9-11.8-14-10.3-23
		c0.5-7.1,4.7-13.2,11.3-16.9C1067.9,223.6,1081.1,224.6,1088.2,233.5L1088.2,233.5z"/>
	<path class="st2" d="M1429.7,235.9c3.8,4.7,6.1,11.8,4.3,18.4c-3.3,7.1-10.4,11.8-17.4,11.8c-6.6-0.5-12.7-3.3-14.6-8.9
		c-3.3-5.2-3.3-12.2,0-16.9c1.4-5.2,6.6-8.5,12.3-9.4C1419.8,230.7,1425,231.6,1429.7,235.9L1429.7,235.9z M1082,235.9
		c4.2,3.8,5.2,8.9,5.7,14.6c-0.9,6.1-5.2,11.3-9.9,15.1c-6.1,1.9-12.7,1.4-17.9-2.8c-3.8-3.8-6.6-8-6.1-13.2
		c-0.9-5.6,2.8-9.9,6.1-13.6C1066,230.7,1075.9,229.3,1082,235.9z"/>
	<path class="st1" d="M1266.5,265c2.8,5.2,3.7,12.2,1.9,18.4c-2.8,8.9-12.7,15.5-21.6,16.5c-8.9-0.5-18.8-4.2-22.6-12.7
		c-3.3-6.1-4.2-15.1-0.5-21.2c3.3-7,10.3-11.8,17.9-13.2C1251.6,251.3,1261.5,256.2,1266.5,265L1266.5,265z"/>
	<path class="st2" d="M1259.9,266.5c2.8,4.2,3.3,11.3,1.9,16.9c-1.9,3.8-5.7,6.1-8.5,8.9c-5.4,1.8-11.3,1.5-16.5-0.9
		c-5.7-3.3-8.9-8.9-8.9-14.6c-0.5-6.6,3.3-12.7,9.4-16C1244.8,257,1254.7,258.5,1259.9,266.5L1259.9,266.5z"/>
	<path class="st1" d="M1490.9,273.5c3.3,8,1.9,18.8-3.3,25.4c-8,7.1-17.4,10.3-27.3,7.1c-6.6-2.4-11.8-8.5-13.7-14.1
		c-2.8-8.5-1.4-17.9,5.2-24c5.8-7,15.3-9.8,24-7.1C1481.5,263.6,1487.6,266.9,1490.9,273.5L1490.9,273.5z M1039.2,279.2
		c1.9,4.7,2.8,11.8,0.9,17.4c-2.4,6.1-8,11.8-13.6,14.6c-8.9,2.8-19.3,1.4-25-4.7c-7-6.6-10.3-17.4-6.6-26.4
		c3.3-8.5,10.8-13.2,19.3-14.6C1024.2,264.6,1034.5,269.7,1039.2,279.2L1039.2,279.2z"/>
	<path class="st2" d="M1486.2,278.2c0.9,4.2,0,9.4-1.4,13.6c-4.2,5.7-9.9,8.9-16,9.4c-6.1,0-10.8-2.8-13.6-6.6
		c-3.9-4.2-5.1-10.1-3.3-15.5c0.9-5.2,5.2-10.4,10.8-11.8C1472.1,263.2,1482,269.3,1486.2,278.2L1486.2,278.2z"/>
	<path class="st1" d="M1443.4,330c41.9,37.6,59.8,89.4,57.9,147.7l-16,14.6c-11.3-0.9-21.2,1.4-28.7,9.4
		c-9.4,13.2-14.1,29.6-11.3,46.1c2.8,12.7,15.1,21.2,27.8,23c-0.5,7.1-7,13.6-11.8,19.3c-10.1,6.8-22.6,8.8-34.3,5.6
		c-12.7-2.8-23-15.5-25.4-27.3c-3.7-9.4,2.8-16.5,3.3-24.9c0.4-11-4.5-21.5-13.2-28.2c-8-7.1-19.8-7.1-28.7-3.8
		c-10.8,4.2-20.7,15.1-20.7,26.8c-1.9,6.6,2.8,13.2-0.9,19.3c-7.1,12.2-20.2,22.1-33.9,21.2c-12.2,0.9-22.6-5.6-29.7-14.1
		c-5.2-6.6-8-14.1-7-22.1c12.2,0.5,26.8-0.9,35.7-13.2c8.5-10.8,5.2-27.3,5.7-40c-1.4-10.3-11.3-20.2-20.2-24l-10.4-1.9
		c-0.9-9.9-8.5-18.4-17-23l-12.7-4.7v-0.9c9.9-2.8,19.8-11.8,22.1-22.1c3.7-11.8-2.4-22.1-7.5-30.1l0.5-19.8
		c7.1-9.4,10.8-22.6,5.7-33.4l-6.1-11.3l0.5-20.2c6.1-8,8.5-18.4,8-27.8C1338.4,263.2,1395.8,287.6,1443.4,330L1443.4,330z
		 M1215.2,271.2c0,8.5,2.3,16,5.2,23.5l-0.5,31.5c-6.6,9.4-4.2,23.5,0.5,33.4l-0.5,31.1c-5.2,7.5-5.6,20.2-0.5,28.7
		c3.3,8,12.2,12.2,19.8,15.5c-3.8,2.4-9.4,2.8-13.2,4.7c-10.8,3.3-16.9,14.1-19.3,23.5c-12.7,7.5-27.8,15.1-32.5,29.6
		c0.5,12.2-4.2,27.8,5.6,37.2c8,11.8,23,13.6,36.2,13.2c-0.5,13.2-9.4,26.4-21.6,31.5c-12.7,5.7-27.3,3.3-38.1-2.8
		c-8-5.6-12.7-13.6-15.1-21.6c0.9-10.8-0.5-22.1-7.5-30.1c-8-8.4-19.9-11.8-31.1-8.9c-10.3,2.8-21.6,12.2-23,23.5
		c-2.3,10.8,0.9,21.2,7.5,29.6c-1.4,13.6-9.9,27.8-24,32c-15.5,4.2-30.6,0.9-40.9-10.4c-4.2-4.7-8-9.9-8.5-15.5
		c10.8-2.8,21.6-13.2,24-24.5c0.5-16-3.3-32-13.2-44.2c-7.5-6.6-16.9-10.3-26.8-8.9l-16.9-18.4c-0.5-69.6,38.6-127.5,94.6-171.3
		c35.3-26.8,80.5-33.9,127-33.4L1215.2,271.2L1215.2,271.2z"/>
	<path class="st2" d="M1030.3,277.3c4.2,3.8,4.7,10.3,4.2,15.5c-0.9,4.7-5.2,8.9-9.4,12.2c-5.2,2.3-11.3,1.4-16,0
		c-6.8-3.7-10.4-11.3-8.9-18.8c0.5-5.2,3.8-10.3,8.5-12.7C1015.7,269.7,1024.6,271.6,1030.3,277.3L1030.3,277.3z M1405.7,308.8
		c37.2,22.6,70.6,60.2,81.9,102.1c-62.6-36.7-141.2-47.5-214.5-34.3v-12.2c7.5-8.9,9.9-21.6,6.6-32.9c-1.9-4.7-3.8-8.9-6.6-12.7
		v-20.2c5.7-6.6,7.5-14.6,8.5-23C1326.2,272.1,1369,284.3,1405.7,308.8L1405.7,308.8z M1209.5,276.3c0.5,7.1,2.8,13.6,4.7,20.7
		c-1.4,12.2,1.9,27.3-3.8,39.1c-1.4,8,0.5,16.5,3.8,24.5l-0.5,16c-67.3-11.3-140.2-4.2-199,25.9c-5.6,1.4-10.8,5.2-15.5,8
		c10.8-37.6,40.9-67.8,71-95.5C1107.9,282,1159.2,274,1209.5,276.3L1209.5,276.3z"/>
	<path class="st1" d="M1589.2,311.6c7.1,6.6,7.1,17.9,4.2,26.8c-5.7,7.5-13.6,12.7-22.6,12.7c-9.4-0.5-18.3-6.1-21.2-14.1
		c-2.8-6.1-3.3-14.1,0-19.8c4.2-7.5,11.3-12.7,19.8-13.2C1576.5,303.2,1583.6,306,1589.2,311.6L1589.2,311.6z M934.8,313.5
		c4.7,4.7,7.5,11.3,7,18.4c-0.5,6.6-3.3,11.8-7.5,16.5c-5.7,4.7-13.6,6.1-20.7,5.2c-7.1-0.9-13.2-5.7-16-11.3
		c-2.8-5.6-4.7-13.2-1.9-18.8c2.4-8.9,11.3-15.5,20.2-16.5C922.5,306.9,929.6,308.8,934.8,313.5z M1529,320.6
		c2.8,4.7,2.4,12.2,1.4,17.9c-2.8,6.2-7.6,11.3-13.6,14.6c-6.1,0.9-13.2,2.3-18.4-0.9c-8.5-4.7-13.7-13.6-12.7-22.1
		c-0.5-9.4,6.1-17.4,14.6-21.2C1511.1,304.6,1523.4,309.7,1529,320.6z"/>
	<path class="st2" d="M1584,315.4c3.3,4.2,5.7,9.9,4.3,16c-1.4,4.2-4.3,8.9-7.5,11.3c-6.6,3.8-14.6,3.3-19.8-0.9
		c-5.2-4.2-7.5-9.4-7.1-15.5c0-5.2,3.3-9.9,8-12.7C1568,308.8,1578.9,308.8,1584,315.4z"/>
	<path class="st1" d="M995,320.6c4.7,5.2,6.6,12.7,5.7,20.2c-1.9,8.5-8.9,16-16.9,18.4c-6.6,1.4-14.6,0.5-19.8-3.3
		c-5.2-4.7-9.9-10.4-10.3-16.9c-1-9.8,4.3-19.3,13.2-23.5C976.2,310.7,987,313,995,320.6z"/>
	<path class="st2" d="M931.5,319.1c4.2,4.2,4.7,11.8,3.3,17.9c-1.9,4.7-6.1,7.5-10.8,10.3c-8,2.4-15.5,0-20.2-6.1
		c-4.2-6.6-4.7-16.5,0.9-22.1c2.8-3.3,6.6-5.2,10.8-5.6C921.6,312.6,927.2,314.4,931.5,319.1L931.5,319.1z M1522.4,320.6
		c2.8,3.3,2.8,8.9,2.8,14.1c-1.4,4.7-5.2,8.9-8.9,11.8c-4.2,1.4-8.9,2.8-12.7,1.4c-4.7-1.4-8.9-5.2-10.4-9.4
		c-2.4-4.7-1.9-11.3,0.5-15.5c2.8-5.7,8-10.3,15.1-9.4C1513.9,313.5,1518.7,316.3,1522.4,320.6L1522.4,320.6z"/>
	<path class="st1" d="M1266.9,330.9c2.4,5.7,3.3,14.1,0.5,20.2c-3.3,5.7-8.5,10.8-14.1,12.7c-8.9,2.4-18.8,0.5-24.9-5.7
		c-5.2-4.7-6.6-10.8-7-16.9c0-10.3,7-19.3,16.9-22.1C1249.1,315.4,1261.3,320.6,1266.9,330.9L1266.9,330.9z"/>
	<path class="st2" d="M991.2,325.7c2.3,3.8,3.8,8.9,3.3,13.6c-1.4,5.2-4.7,10.3-9.4,13.2c-5.6,1.9-12.2,2.3-16.9-1.4
		c-5.4-3.2-8.5-9.2-8-15.5c0.5-5.2,1.9-10.3,7-13.2C973.8,317.3,985.6,317.7,991.2,325.7z M1259.4,330.4c2.8,4.2,4.7,10.8,2.8,16.5
		c-2.4,5.2-6.6,10.3-11.8,11.8c-5.7,1.4-10.8,0-15.1-2.3c-5.2-3.8-8.5-9.9-7.5-16c-0.5-5.7,3.3-10.3,8-13.6
		C1242.9,322.4,1253.3,322.9,1259.4,330.4z"/>
	<path class="st1" d="M1649.4,341.3c2.4,6.1,1.4,13.6-1.4,19.8c-5.7,8-15.5,13.6-25.4,11.8c-6.6-1.4-12.7-5.2-15.1-10.8
		c-4.7-5.7-5.2-14.1-2.3-20.2c2.8-8.9,11.3-15.5,20.7-15.5C1635.3,325.3,1644.3,332.3,1649.4,341.3L1649.4,341.3z M883,341.7
		c2.3,5.7,3.3,13.2,1.4,19.3c-3.8,9.4-13.6,15.1-23.5,15.5c-7.5-0.9-15.1-4.7-19.3-10.8c-3.8-6.1-5.2-13.6-2.8-20.2
		c2.8-8.5,11.3-14.6,20.2-16C868.4,328.1,877.4,333.3,883,341.7L883,341.7z"/>
	<path class="st2" d="M1640,338.4c3.3,4.2,4.7,10.3,3.3,16.5c-2.1,5-6,9.2-10.8,11.8c-8,1.4-15.1-0.9-19.8-7.1
		c-3.3-4.7-4.3-11.8-1.4-17c1.4-5.6,7.5-8.5,13.2-10.3C1629.7,331.4,1635.3,334.2,1640,338.4L1640,338.4z M875.5,341.7
		c3.3,3.8,4.2,9.4,3.8,15.1c-1.9,5.6-7.1,11.3-12.2,13.2c-5.7,1.4-11.3-0.5-15.5-3.3c-4.7-4.2-8.9-8.9-7.1-15.5
		c0-4.7,3.3-8.9,7.1-11.8C858.1,333.3,869.8,334.7,875.5,341.7z"/>
	<path class="st1" d="M1702.1,377c2.4,6.1,2.4,14.6-0.9,20.7c-5.2,7.5-13.6,13.2-22.6,12.2c-6.6-0.9-12.2-2.8-15.5-7.5
		c-4.5-4.8-6.7-11.3-6.1-17.9c0.3-7.8,4.8-14.8,11.8-18.4c5.2-3.3,12.2-4.2,18.8-2.4C1693.8,366.5,1698.9,371.1,1702.1,377
		L1702.1,377z M1560,377c1.9,6.1,2.4,14.6-0.9,20.7c-3.3,6.6-9.4,9.9-15,12.2c-6.1,0.5-14.1,0.9-18.3-2.8
		c-8.9-5.6-13.2-15.1-11.3-24.5c1.4-7.1,5.2-13.2,11.8-16.5C1538.5,360.2,1553.4,365,1560,377L1560,377z M825.6,373.7
		c6.6,7.5,6.6,19.8,2.8,28.7c-4.2,7.5-12.7,11.3-20.7,10.8c-9.9-0.5-18.8-8-21.2-16.9c-2.4-9.9,0.9-19.8,9.4-25.4
		C804,363.4,818.1,364.8,825.6,373.7z M967.2,379.4c5.2,7.1,5.7,17.9,0.9,25.9c-4.7,7.1-12.2,10.3-20.2,10.8
		c-7.1,0.1-13.8-3-18.4-8.5c-5.2-5.6-6.1-13.2-4.7-20.2c0.9-6.6,6.1-13.2,12.2-16C947.9,366.7,960.2,369,967.2,379.4L967.2,379.4z"
		/>
	<path class="st2" d="M1697,380.3c0.9,5.2,0,9.9-1.4,14.6c-4.3,7.1-11.3,9.9-17.4,9.4c-5.7-0.9-10.8-5.2-12.7-9.4
		c-3.8-5.2-2.8-11.3,0-16.5c1.4-6.1,8-8.5,13.6-9.4C1686.1,368.6,1693.2,373.3,1697,380.3z M1551.1,375.1c3.3,3.8,4.7,9.4,4.2,15.1
		c-1.4,4.7-4.7,8.9-8.5,12.2c-6.6,2.8-15.5,2.8-20.7-1.9c-5.7-5.6-7.5-12.2-4.7-19.8c1.4-6.1,7.5-10.8,14.1-11.3
		C1541.7,368.6,1546.9,370.9,1551.1,375.1L1551.1,375.1z"/>
	<path class="st1" d="M1624.5,402.4c28.2,18.4,54.6,45.2,68.7,77.2c15,33.4,23,70.1,29.6,107.7c-2.4,3.3-7.5,2.4-10.4,5.7
		c-14.1,8.9-16.9,24.5-21.6,38.6c-1.9,13.2,5.7,24.9,17.4,31l11.8,5.2v2.4c-11.3,8.5-25.4,11.8-38.6,8
		c-11.8-3.8-22.6-13.6-26.3-24.9c-1.9-7.1-3.3-15.1-0.5-21.2c7-8.9,9.9-20.2,7-31.5c-3.3-9.9-12.7-18.4-21.6-20.7
		c-11.3-3.8-23.5-0.5-30.6,8c-8,6.6-9.9,16-10.4,25.4c-10.4,11.3-26.3,15.1-40,12.7c-12.7-2.3-24-12.2-28.7-23.5
		c-2.4-5.2-3.7-10.8-2.8-16.5c11.8,3.3,28.7,7.1,40-2.8c11.8-10.3,11.3-25.9,15.5-39.5c0-12.2-6.1-23.1-15.5-27.8
		c-7-1.9-0.9-9.4-2.8-14.1c-1.9-8.8-7.1-16.6-14.6-21.6v-0.9c12.2,0.5,25-5.6,31.1-17.4c4.7-9.9,2.8-24-3.7-32
		c-7.1-8-16.5-11.3-26.3-10.8c-6.6-7.5,5.2-6.1,7.5-10.8c8.9-8,10.8-22.1,7.5-32.9c-0.9-1.4-1.9-2.3-0.5-3.3
		C1584.5,381.3,1605.7,388.8,1624.5,402.4z"/>
	<path class="st2" d="M823.7,381.3c2.4,4.7,2.4,12.2,0,17.4c-3,5.9-9.3,9.4-16,8.9c-5.6-0.5-11.3-4.7-13.6-8.9
		c-2.3-4.7-2.4-10.2-0.5-15.1c1.4-5.6,7.1-10.3,13.2-11.3C813.9,371.4,820,375.1,823.7,381.3L823.7,381.3z M961.1,380.8
		c2.3,3.3,4.7,7.1,4.7,12.2c-0.9,5.1-3.2,9.8-6.6,13.6c-4.2,2.8-9.9,3.8-14.6,3.3c-6.1-0.9-11.8-6.1-13.2-11.3
		c-1.9-4.7-1.9-10.8,0.9-14.6c2.6-5.4,8.1-8.9,14.1-8.9C951.2,374.7,956.9,376.6,961.1,380.8L961.1,380.8z"/>
	<path class="st3" d="M1490.4,420.8c3.3,17.9,5.7,36.7,4.7,55.5l-12.7,9.9c-15-1.4-27.8,5.6-34.8,17.4c-6.1,16.5-16.9,38.6-3.7,55.5
		c3.7,8,12.2,13.2,21.2,15.5c-2.4,7.1-9.9,13.2-16.5,15.5c-11.3,3.8-23.6,0.5-31.1-6.6c-8-6.6-11.8-16-10.4-25.4
		c4.2-9.9,5.2-22.1,0.9-32c-5.7-12.2-19.3-23-32.5-22.6c-14.6-0.5-26.8,6.1-34.3,18.4c-6.1,8.5-6.1,20.2-5.2,30.6
		c-4.2,8.9-12.7,18.4-23,20.2c-11.8,0.9-23.5-1.4-30.1-11.3c-3.3-3.8-6.1-8.5-5.7-13.2c11.8,0.5,24.5-3.3,32.5-13.2
		c11.3-13.2,7.1-31,7.5-47.5c-1.9-12.7-12.7-23.5-23.5-27.8l-6.6-1.4c-3.3-9.9-11.3-19.8-20.7-24c9.1-7,14.6-17.7,15-29.2
		c-0.5-8.5-3.8-16-7.5-22.1C1346.9,370,1428.8,378.9,1490.4,420.8L1490.4,420.8z M1213.8,383.1c0.9,6.6-4.2,12.2-3.8,19.3
		c-0.5,12.2,3.3,23.5,13.6,31c-2.3,1.4-5.6,2.8-8,4.7c-8,6.6-12.7,13.7-15.5,22.1c-13.2,7.1-27.3,15.1-32.5,30.1
		c0,15.5-3.3,35.3,10.3,46.6c8,8.1,19.2,12.3,30.6,11.3c-0.9,8-7.5,14.6-14.1,19.8c-11.3,5.2-25.9,5.2-35.8-1.9
		c-4.7-5.2-11.3-10.8-11.3-17.9c1.4-13.6-2.3-26.8-13.2-35.7c-9.9-8-23.5-10.8-35.3-6.6c-13.2,3.3-23.5,16.9-24.9,29.6
		c-2.4,11.8,2.3,21.6,7,31.5c-2.3,9.4-8.5,20.2-18.8,23.5c-9.4,2.8-21.6,2.4-29.6-3.3c-5.2-4.2-9.4-8-10.8-13.6
		c10.8-3.8,18.8-15.1,22.1-25.4c1.9-17.9-3.8-34.3-12.2-48c-8-9.4-19.3-14.1-31.5-13.6L987,472c0.5-17.9,2.3-35.3,8.5-51.3
		c14.6-10.8,31.5-17.9,48.5-24.5h1.4C1098.5,376.1,1156.4,374.2,1213.8,383.1L1213.8,383.1z"/>
	<path class="st1" d="M917.8,392.6c0,8,3.3,15.1,8.9,21.2c1.9,6.1,16.9,4.2,10.3,13.2c-12.7-1.9-24,3.8-30.1,14.1
		c-5.6,8.9-4.7,23.5,1.4,32.5c4.7,5.6,11.3,9.9,18.4,11.8c-5.7,8-10.4,16.9-8.5,28.2c-9.9,4.7-19.8,14.6-19.8,26.8
		c-0.5,11.8,3.3,22.6,7.1,33.4c4.2,8,13.2,15.5,23,16.5c10.8,1.4,20.7-3.3,31.1-5.2c2.8,15.1-5.7,29.2-18.4,37.2
		c-11.8,7.1-26.8,7.5-39.5,2.4c-7.1-4.7-15.1-10.4-17.9-18.4c-2.4-10.8-12.7-18.8-22.1-22.1c-10.2-2.4-20.8-0.1-29.2,6.1
		c-8.5,6.6-12.2,17.9-10.8,29.2c0,8.5,5.2,15.1,11.3,21.2c0.5,12.7-4.7,24-14.1,32.9c-13.2,10.3-32,9.9-45.6,2.3v-1.4
		c11.3-6.6,21.6-17.9,22.6-31.1c-1.9-13.2-8-24.9-13.2-36.7c-3.8-5.7-9.4-8-15.5-9.4c3.3-42.3,15-82.3,32.5-119.5
		c11.8-25.4,30.1-50.3,55-64.9c19.8-16,41.9-26.4,64.9-34.8C920.2,382.7,917.4,387.4,917.8,392.6L917.8,392.6z M1262.2,388.3
		c6.6,6.1,8.9,16.9,5.6,25.9c-2.4,6.6-9.4,11.3-15.5,13.6c-9.9,2.4-20.7-0.5-26.3-8.9c-4.2-5.5-5.6-12.6-3.8-19.3
		c0.5-6.6,6.1-11.8,11.8-15C1242,380.3,1254.7,380.8,1262.2,388.3z"/>
	<path class="st2" d="M1694.1,497.9c-32-21.6-67.8-32.9-103.5-40.9c1.4-13.6-3.8-26.3-12.7-35.8c-5.2-3.3-10.4-6.1-15.5-7.5
		c8.5-8,12.2-18.8,12.2-30.6C1624.5,402,1678.1,444.3,1694.1,497.9z M911.7,388.3c-1.9,13.2,5.2,24.5,13.6,32.9
		c-11.3,2.4-22.6,10.8-26.3,22.6l-2.4,12.7c-34.3,7.5-68.7,16.5-97.4,37.6c8.5-25.9,25.4-52.2,49.9-69.2
		C867.5,409,888.8,396.5,911.7,388.3z M1257.5,392.1c3.8,4.2,6.1,10.3,5.2,16.9c-1.5,5.3-5,9.7-9.9,12.2c-5.6,2.4-12.7,1.4-17.4-1.4
		c-5.2-3.8-8-9.4-7.5-15.5c0.5-6.1,3.8-12.2,9.9-14.6C1244.2,386.2,1252.1,387.2,1257.5,392.1L1257.5,392.1z"/>
	<path class="st1" d="M1743.6,424.5c3.8,6.6,3.3,16.5,0.5,24c-4.7,7.1-13.7,12.2-22.1,11.3c-7.5,0-13.7-3.8-17.4-8.9
		c-4.2-5.6-6.6-11.8-4.2-18.8c0.9-6.6,4.7-13.2,11.3-16C1721.4,410,1737,412.8,1743.6,424.5L1743.6,424.5z M786.6,426.9
		c4.2,5.7,4.2,13.6,2.8,21.2c-2.4,5.7-7.5,10.8-13.7,13.6c-6.1,1.9-14.6,2.4-20.2-0.5c-8.9-4.2-13.6-13.6-12.7-23.1
		c0-7.1,3.8-13.2,9.9-17.4C762.6,413.3,779,415.6,786.6,426.9L786.6,426.9z"/>
	<path class="st2" d="M1736.5,425c3.7,4.2,4.7,11.3,3.3,17.4c-1.6,3.9-4.4,7.2-8,9.4c-5.7,3.3-12.2,2.3-17,0.5
		c-7.5-4.2-10.8-12.2-8.5-19.8c0.5-4.7,3.7-8.9,8.5-11.3C1721.4,416.5,1730.4,418.9,1736.5,425L1736.5,425z M780.9,430.2
		c3.8,3.8,3.3,10.3,2.4,16c-1.4,4.2-5.2,8-9.4,10.3c-7.1,2.3-16,0.9-21.2-4.7c-4.7-5.7-5.7-14.6-1.4-21.2c2.8-5.2,8.5-7.5,13.6-8.5
		C771,421.7,777.1,425,780.9,430.2L780.9,430.2z"/>
	<path class="st1" d="M1575.6,437.2c2.8,5.6,3.8,12.7,1.9,19.3c-3.8,8.5-11.8,14.6-19.8,16l-12.2-1.4c-9.4-5.2-17-13.6-15.1-24.5
		c0-6.1,3.3-11.8,8.5-15.5c5.6-6.1,15-7.1,24-4.2C1568,427.8,1572.3,432.5,1575.6,437.2L1575.6,437.2z"/>
	<path class="st2" d="M1568.5,437.2c1.9,3.3,3.7,7,4.2,11.8c-1.4,5.7-3.3,11.3-8,14.6c-5.2,1.9-11.3,4.2-15.5,1.9
		c-6.1-1.4-9.4-6.1-11.3-10.3c-2.3-5.2-1.9-11.8,1.9-16c2.4-3.8,6.6-6.6,11.3-7.5C1557.7,430.7,1562.9,433,1568.5,437.2
		L1568.5,437.2z"/>
	<path class="st1" d="M955,446.2c2.8,6.6,1.9,15.5-1.4,22.1c-4.7,7.5-13.2,11.3-21.6,11.3c-8-0.9-16-4.2-19.8-11.8
		c-4.7-7.5-4.7-18.4,0.9-24.9c4.7-7,11.8-9.9,19.8-10.3C941.8,432.5,951.2,437.2,955,446.2z"/>
	<path class="st2" d="M947.9,446.2c2.8,4.7,3.3,11.8,1.4,17.4c-3.8,5.2-8.5,9.4-14.6,10.3c-7.5,0.5-14.1-4.2-17.9-10.3
		c-1.9-4.2-2.8-9.9,0-14.1c2.4-7,8.9-11.3,16.9-11.3C939,439.1,944.2,441,947.9,446.2z"/>
	<path class="st1" d="M1277.8,479.1c6.1,9.9,6.1,25.9,0.5,36.7c-6.6,9.9-17,17.4-28.7,18.8c-11.8,0.5-23.1-2.4-31.1-10.3
		c-9.4-10.8-14.6-25.4-8.9-39.1c3.8-13.6,17.4-24,31.5-25.4C1256.1,458.4,1270.2,465,1277.8,479.1L1277.8,479.1z"/>
	<path class="st3" d="M1698.4,509.7c7.1,23.5,13.2,47.5,17,73.4l-0.5,2.3c-17.9,5.2-22.6,24-28.2,38.6c-3.8,9.4-2.4,21.6,3.7,30.6
		c3.3,6.6,11.3,11.3,18.4,15.1c-2.8,2.4-8,2.8-11.3,3.8c-10.8,1.4-23.5-3.8-30.1-11.8c-6.6-7.5-9.9-16.9-7-26.8
		c7.5-10.3,10.8-24.5,7-36.7c-3.7-9.9-12.7-19.8-22.1-23c-11.4-4.9-24.5-3.7-34.8,3.3c-10.6,7.4-17,19.5-17,32.5
		c-11.8,9.4-27.8,13.7-40.5,6.6c-9.4-4.2-17.4-13.6-18.8-23.1c7.1,0.9,16,1.4,24.5-0.5c23-5.2,25.9-31,30.6-49.9
		c-0.5-13.6-7.1-26.4-17.9-33.9c0.9-10.3-2.8-19.3-8-26.3c9.9-2.3,19.7-11.8,24.4-21.2C1626.9,471.6,1666.4,483.4,1698.4,509.7
		L1698.4,509.7z M914.1,486.6c1.4,0.5,3.8,1.9,2.3,4.2c-3.8,5.6-5.2,13.2-5.2,20.2c-10.3,5.1-17.3,15-18.8,26.4
		c-1.9,14.1,4.2,25.9,8,39.1c6.8,13,20.6,20.8,35.3,19.8l17.4-3.3c0,8.5-5.2,17.4-12.7,23c-9.9,7.1-24,7.5-34.8,3.3
		c-18.4-5.2-14.6-26.3-29.2-34.3c-9.9-8.5-23.5-9.9-35.3-6.1c-14.6,4.7-24.5,18.4-25.4,33.4c-0.5,11.8,3.3,22.1,11.8,30.6
		c-1.4,9.4-3.3,18.8-11.8,25.4c-8.9,6.6-19.8,8.9-30.1,5.7c10.3-10.3,20.2-24.5,14.6-40c-7.5-14.6-7.5-35.3-25.9-40.5
		c0.5-24.9,8-47.5,14.1-70.1l6.1-17.9c29.2-25.4,65.9-33.4,102.1-42.3C900,471.6,905.1,481,914.1,486.6L914.1,486.6z"/>
	<path class="st2" d="M1273.5,483.8c5.2,11.3,2.8,26.3-5.7,36.2c-10.3,8.9-24.9,11.3-37.2,5.7c-10.3-5.7-17.9-15.1-16.9-27.3
		c-0.5-10.3,2.8-20.2,12.2-26.4c7.5-5.6,17.9-7.5,28.2-5.2C1261.8,469.2,1269.7,475.8,1273.5,483.8L1273.5,483.8z"/>
	<path class="st1" d="M1771.8,484.8c2.3,8.9,0,18.8-6.6,25.9c-5.6,3.3-11.3,5.6-16.9,5.6c-7.1-1.4-13.7-4.2-17.9-9.9
		c-5.7-7.1-6.6-17.9-1.9-24.9s11.8-12.7,20.7-12.2C1758.1,468.8,1767.5,475.4,1771.8,484.8L1771.8,484.8z M763.1,489
		c2.8,7.5-0.5,16-4.7,22.6c-6.6,6.1-15.5,9.9-24.5,7.5c-7.1-1.9-12.2-8.9-15.1-14.6c-3.8-9.4-0.5-18.8,5.6-24.9
		c5.6-6.1,15.1-8,23-5.6C753.2,475.8,760.7,481.9,763.1,489z"/>
	<path class="st2" d="M1762.4,481c3.7,3.8,4.2,9.9,4.2,16c-1.9,5.2-6.6,10.3-11.3,12.2c-6.1,1.9-10.8,0.5-15.6-1.9
		c-4.7-3.3-7-7.5-7-12.2c-0.9-7.1,0.9-13.2,7-16.5C1745.9,473,1756.3,474.9,1762.4,481z M751.7,483.4c3.8,3.8,6.1,8.9,5.7,15
		c-0.9,5.7-5.2,12.2-10.8,14.1c-5.5,1.8-11.5,1.1-16.5-1.9c-6.1-5.7-8.5-14.6-5.2-21.6c1.9-5.6,8-8.9,13.2-10.3
		C742.8,478.2,747.5,480.1,751.7,483.4z"/>
	<path class="st1" d="M998.3,510.6c10.3,11.3,10.8,31.1,3.8,44.7c-8.5,10.8-20.7,16.9-33.4,16.9c-12.3-0.4-23.7-6.7-30.6-16.9
		c-6.1-9.4-8.5-22.6-3.8-32.9c3.8-14.6,17.9-23.5,32-24.9C979,496.5,989.8,501.2,998.3,510.6L998.3,510.6z M1545.5,511.6
		c8,9.4,12.2,23.1,8.5,35.7c-4.2,11.3-14.1,22.1-25.4,25.4c-11.3,2.8-24.5,1.4-32.5-5.6c-10.3-8.9-17.4-20.2-15.5-34.3
		c0.9-13.2,10.8-24.9,22.6-30.6C1517.2,496.5,1534.6,499.8,1545.5,511.6z"/>
	<path class="st2" d="M996.4,518.2c5.7,7.5,5.7,20.2,2.3,29.6c-5.2,9.4-15.1,17.4-24.9,18.4c-9.9,0.9-19.8-2.4-26.4-8.9
		c-7.1-7.5-11.3-16.9-8.9-27.3c1.4-11.3,10.3-22.1,21.6-25.4C973.8,499.8,988.9,505.9,996.4,518.2z M1541.7,516.3
		c7.5,8.5,8.5,21.2,5.2,32c-3.3,9.4-12.7,16.9-21.6,19.3c-11.3,2.3-23-0.9-30.1-9.4c-7-8-10.4-18.4-7-29.2
		c2.8-12.2,12.7-22.6,25.9-23.5C1524.8,503.6,1533.7,509.2,1541.7,516.3L1541.7,516.3z"/>
	<path class="st1" d="M1780.7,537.9c3.3,2.8,4.7,8.5,8,11.3c-0.9,4.2,0,10.3-1.4,15.5c-4.2,8-12.7,14.6-21.2,15.1
		c-7.5-0.9-14.6-2.3-18.3-8c-5-5-7.2-12.3-5.7-19.3c0-6.6,3.8-12.2,9.9-16C1759.1,530.4,1772.7,531.3,1780.7,537.9L1780.7,537.9z
		 M744.7,548.3c4.7,7.5,3.8,19.3-1.9,26.3c-6.1,7.5-16.5,9.9-25.4,7.5c-6.8-2.7-12.1-8.2-14.6-15c-2.4-6.1-1.4-13.7,1.9-19.3
		c3.8-6.1,10.3-10.8,17.9-11.3C731.5,535.6,740.9,539.8,744.7,548.3L744.7,548.3z"/>
	<path class="st2" d="M1779.8,545.9c2.8,5.7,3.3,14.6-0.5,20.7c-4.3,4.2-8.9,6.6-13.7,7c-6.1-0.5-11.3-2.4-14.6-6.6
		c-4.2-4.7-4.2-12.7-1.9-17.9c1.9-6.6,8.5-10.3,15-10.8C1769.9,537.9,1775.1,541.2,1779.8,545.9z M739,549.7
		c3.3,4.2,3.3,11.3,1.9,16.5c-2.3,5.2-7.5,10.3-13.2,10.8c-6.1,0.5-11.3-0.9-15.1-4.7c-3.8-3.8-5.6-9.3-4.7-14.6
		c0.5-7.5,6.1-13.2,13.6-15.1C727.7,540.8,734.3,544.5,739,549.7z"/>
	<path class="st1" d="M1246.7,542.6c0.9,21.2,11.8,41.4,31,52.2l-0.5,4.7c-23.1,0-47.5,0-70.1,0.9c-1.9-1.9-2.3-5.6,1.4-6.1
		c17.4-10.8,31.1-30.1,32.5-50.8C1242.5,542.2,1244.4,542.2,1246.7,542.6L1246.7,542.6z"/>
	<path class="st3" d="M1265.5,593.9l-0.9,0.5c-15.5-0.9-30.1-0.5-44.2,0c10.3-9.4,18.8-19.8,23.5-32.5
		C1249.1,573.2,1254.2,585.5,1265.5,593.9z"/>
	<path class="st1" d="M1135.7,584c6.6,7.1,15.5,11.8,24.9,15.1v5.2c-24,2.8-48.9,6.6-71.5,10.8c-8-7.1,5.2-9.4,7.5-14.1
		c6.6-8,9.9-17.9,13.7-26.8c5.2,0,10.3-2.8,15.5-2.8L1135.7,584L1135.7,584z M1379.4,572.7c5.2,11.8,8.5,25.9,20.7,34.8
		c0.9,1.9-1.4,3.3-1.4,5.2c-22.6-3.3-45.7-7.5-67.8-8.9c-5.2-8.9,8-6.6,11.8-11.8c7.5-5.7,13.7-13.6,18.8-20.7
		C1367.1,572.7,1372.8,574.2,1379.4,572.7z M991.7,576c7.5,19.3,24,39.1,45.6,43.8c0.9,0.9,0.5,3.3,0.5,5.2l-75.7,19.8
		c-6.6-6.6,6.1-8,7.5-13.2c11.8-15.1,17.9-33.4,15.5-53.2C986.5,577,988.9,576,991.7,576L991.7,576z M1502.6,578.9
		c-1.4,21.2,4.3,41.9,20.7,56.5c1.4,1.9,6.6,4.2,3.7,7.5l-1.9,0.9c-24-7-46.6-14.1-70.1-19.8c-2.4-8,8-6.1,12.2-9.4
		c13.6-8,26.8-22.1,31-37.2L1502.6,578.9L1502.6,578.9z"/>
	<path class="st3" d="M1133.8,590.6l12.7,9.4l-47.1,7.1c6.1-8.5,11.8-17.4,15.1-27.3c2.8-0.9,6.1-1.9,8.9-1.4L1133.8,590.6
		L1133.8,590.6z M1375.1,579.8c2.8,8.5,8,16.9,13.7,24.9c-14.1-1.9-30.1-4.2-45.7-5.6c7.5-4.7,15-13.2,21.7-21.2L1375.1,579.8z"/>
	<path class="st1" d="M1792,580.7v0.5h-0.9C1790.1,580.3,1791.6,579.8,1792,580.7z"/>
	<path class="st3" d="M1025.1,621.7c-16.5,4.2-34.3,8.9-50.3,13.6c10.2-12.8,16.1-28.4,16.9-44.7C999.7,603.3,1011,616,1025.1,621.7
		z M1513.5,633.9c-16-3.8-31.1-9.9-46.1-12.7c10.8-6.1,23-14.6,29.6-26.8C1498,609.4,1504.1,622.1,1513.5,633.9z"/>
	<path class="st1" d="M1791.6,615.1c8,9.9,9.9,23.5,5.6,36.2c-5.2,11.8-16.9,21.2-28.7,22.6c-12.7,1.4-24-2.8-32-11.3
		c-8.3-9.2-11.4-22-8-33.9c3.3-14.1,16-24.9,30.1-26.8C1770.4,600.5,1783.6,603.8,1791.6,615.1L1791.6,615.1z"/>
	<path class="st2" d="M1790.6,624c1.4,4.2,1.9,9.9,3.3,15.5c-1.9,10.8-8.9,22.6-19.3,26.8c-10.8,3.8-22.1,1.9-30.1-4.2
		c-8-7.1-10.8-15.1-10.8-24.5c0-12.7,8-24.5,20.7-28.2C1768,603.8,1783.6,610.8,1790.6,624z"/>
	<path class="st1" d="M761.6,625.9c6.6,8.5,8,22.1,4.2,32.9c-5.2,10.8-16.9,21.2-29.2,23c-10.8,0-20.7-2.3-29.2-9.4
		c-9.4-9.9-15-23-10.8-37.2c4.2-13.6,17.9-25.4,32.5-25.9C741.9,608,754.1,614.6,761.6,625.9L761.6,625.9z"/>
	<path class="st2" d="M755,626.4c6.6,8.5,8.5,21.2,4.2,31.5c-4.1,8.1-11.2,14.3-19.8,17.4c-8,1.9-16-0.5-23-4.2
		c-9.4-6.1-15.1-16.5-14.6-27.3c0-10.8,7.1-20.2,16-25.4C730.1,612.3,745.6,614.6,755,626.4L755,626.4z"/>
	<path class="st1" d="M1609.9,715.8l38.6,16.5c3.3,2.8,6.1,7.5,4.2,12.7c-1.9,3.8-6.6,4.7-8.9,7.5l5.7,24.9
		c-9.4,5.2-18.8,10.8-26.8,17.4c0.9,3.8,1.4,8.5-0.5,12.7c-3.7,3.3-8.5,5.7-12.7,3.8c-4.2-1.9-6.6-4.2-9.9-5.2
		c-96-43.8-200-75.7-309.6-75.7c-70.1-1.9-135.5,0-202.3,13.6c-75.3,14.1-145.9,42.3-213.6,75.3c-5,1.3-10.3-0.3-13.6-4.2
		c-3.3-4.7-1.9-11.3-0.5-15.5L836.4,783c0.9-8.5,2.8-17.4,4.2-25.9c-4.2-1.9-9.9-2.8-11.3-8c-0.5-3.3-0.5-8,2.3-10.8
		c8.5-5.7,18.8-8.5,28.7-12.2c121.9-50.3,251.2-90.8,389.6-90.8C1376.6,634.4,1496.5,669.7,1609.9,715.8L1609.9,715.8z
		 M1627.3,642.4c1,15.1,5.7,29.6,17,41.9c-2.8,8.9-8.9-0.9-13.2,0c-20.7-9.9-41.9-18.3-62.1-25.9c-2.3-1.4-0.9-3.8,0-5.2
		c14.1-1.9,30.6-5.6,42.8-16.5C1616.5,638.1,1621.2,641,1627.3,642.4z M917.4,654.1c0.5,0.9,1.4,2.8,0.9,5.2
		c-24,8.9-48,16-70.6,27.3l-6.1,1.4c0.9-4.2,5.6-7.1,8-10.8c6.1-8.9,8.9-19.8,9.9-30.6c5.2-2.8,10.3-4.7,15.1-8.5
		C887.2,646.6,901.4,653.7,917.4,654.1z"/>
	<path class="st2" d="M1570.4,706.4c24,8.5,48.5,19.3,72.9,29.6c1.9,0.9,3.7,4.2,2.8,7l-5.2,3.3l-38.6,12.2
		c3.7,13.6,9.9,26.8,15.5,40.9c0,3.3-2.8,5.6-5.2,6.6c-92.7-42.8-191.5-77.2-295.5-80.9c-98.3-5.7-199.5,0-290.7,27.8
		c-53.6,15.5-104.9,36.7-154.8,60.7c-3.8,0.9-5.6-1.4-7.1-3.3c0.9-14.1,8.9-25.9,12.7-38.6l4.2-10.3c-14.2-4.6-28.6-8.4-43.3-11.3
		c-2.8-1.4-4.2-5.2-2.3-7.5l7.5-3.8c137.9-56.9,286.5-105.4,443.2-96.5C1383.6,646.1,1479.6,672.5,1570.4,706.4L1570.4,706.4z"/>
	<path class="st3" d="M1621.7,646.6c1.9,10.4,3.8,21.2,9.9,30.6c-16-6.6-32.5-13.6-47.5-19.8c10.3-2.9,20-7.5,28.7-13.6
		L1621.7,646.6L1621.7,646.6z M902.8,657.9l-44.2,17.4c1.9-7.1,4.7-16.5,6.6-24.5l9.9-5.2C883.5,650.8,892.9,656,902.8,657.9z"/>
	<path class="st1" d="M1316.8,684.7c0.9,1.9-2.4,1.9-3.3,2.8l-69.2,21.6l-73.4-22.6v-1.4c24.9-9.4,49.4-19.8,74.8-29.2
		C1269.3,664.5,1292.8,675.3,1316.8,684.7L1316.8,684.7z M1727.1,657.9l-1.4-0.9l1.4,0.5V657.9z"/>
	<path class="st3" d="M1300.3,684.7l-56.5,18.4l-55-17.4v-0.9l56.9-22.1C1264.1,668.7,1282,677.2,1300.3,684.7z"/>
	<path class="st1" d="M1380.3,678.1c2.6,6.4,3.2,13.4,1.9,20.2c-3.3,9.4-13.7,16-22.6,17.9c-10.4,0.5-18.8-3.8-24-10.8
		c-4.2-5.2-5.7-10.8-5.2-17.4c0.5-9.9,8.5-19.3,17.9-22.1C1359.6,661.7,1373.3,666.9,1380.3,678.1L1380.3,678.1z M1154,681
		c2.8,8.5,2.3,20.7-4.7,28.2c-6.1,5.2-13.6,8-21.2,7.1c-8.9-1.4-17.9-8-19.8-16c-3.8-9.4-1.5-20.1,5.7-27.3c6.1-6.1,16-8.9,24.9-5.6
		C1144.6,669.7,1151.2,674.4,1154,681L1154,681z"/>
	<path class="st3" d="M1372.3,678.1c2.8,3.8,4.7,9.4,4.2,15.1c-1.9,7.1-7.1,14.1-13.7,16.5c-7.3,1.8-15.1-0.2-20.7-5.2
		c-5.7-6.6-7.5-16.9-2.4-24.5c3.3-5.6,8.9-8.9,15.5-9.4C1361.5,670.6,1368.1,672.5,1372.3,678.1L1372.3,678.1z M1143.7,676.7
		c4.2,4.7,6.6,10.8,6.1,17.9c-1.9,5.6-5.2,12.2-10.8,14.6c-5.7,2.3-11.3,1.4-16-0.5c-7.5-4.7-11.8-12.7-9.9-21.6
		c1.4-7.1,7.1-13.6,14.6-15C1133.3,670.6,1139,672.5,1143.7,676.7L1143.7,676.7z"/>
	<path class="st1" d="M1475.8,686.1c20.7,13.6,40,30.6,61.2,44.7v0.9c-24.9,1.4-52.2,1.9-77.6,3.3c-21.7-14.1-43.3-25.9-63.5-40.5
		l0.9-0.9c25.4-2.8,49.4-4.7,75.3-8L1475.8,686.1L1475.8,686.1z M1090,695.5c-21.2,15.1-43.3,29.6-65.4,41.9l-73.4-3.8l-0.5-0.9
		l61.6-46.6l77.2,8.9L1090,695.5L1090,695.5z"/>
	<path class="st3" d="M1520.5,726.6c-20.7,0.5-40,2.3-60.7,2.3c-15.5-11.8-32-19.3-47-30.6c19.8-1.9,38.6-5.6,59.3-6.6
		C1489,701.2,1503.6,714.4,1520.5,726.6z M1074.5,699.3c-16.5,11.3-33.9,21.6-50.8,32l-56.5-2.4V728l47.1-36.2
		C1034.5,693.7,1054.3,696.5,1074.5,699.3z"/>
	<path class="st1" d="M1598.6,736.9c4.3,8,2.4,20.7-2.8,28.7c-7.1,7.1-17.4,10.8-26.8,8.5c-8.9-2.3-16.5-10.3-18.8-17.9
		c-2.8-9.9,0-20.2,8-25.9c6.1-6.6,15.5-8.5,24.5-6.6C1588.3,726.1,1595.3,729.9,1598.6,736.9L1598.6,736.9z M929.6,733.7
		c4.7,5.2,7.1,12.2,6.6,19.8c-1.4,6.6-4.7,13.2-9.9,17.4c-8,5.2-17.9,6.6-26.3,3.3c-8.5-4.7-14.1-13.2-14.6-22.1
		c-0.9-10.8,5.2-18.8,13.6-24C908.4,722.8,921.6,725.2,929.6,733.7L929.6,733.7z"/>
	<path class="st3" d="M1594.4,742.1c1.4,5.7,0.5,12.7-2.3,18.4c-4.3,3.8-8.5,7.1-14.1,8.5c-7.1,0.5-12.7-2.3-16.9-6.1
		c-4.7-5.2-6.1-11.3-4.7-16.5c0-6.6,4.2-12.2,9.9-14.6c4.7-2.8,11.3-4.2,16.9-0.9C1587.4,732.7,1592.1,736.5,1594.4,742.1
		L1594.4,742.1z M925.4,737.9c3.8,4.2,5.7,10.3,4.2,16c-1.1,6.2-4.9,11.5-10.3,14.6c-5.7,1.9-12.7,2.3-17.4,0
		c-7.5-4.7-11.3-13.2-9.9-20.7c0.5-6.6,4.7-11.3,9.9-14.6C909.4,729.4,919.2,731.3,925.4,737.9L925.4,737.9z"/>
	<path class="st1" d="M1626.9,824.5c99.3,50.3,190.5,124.7,264.9,215c46.6,62.1,90.8,127,120.9,198.1
		c43.3,106.3,68.2,222.1,67.8,347.2c-4.7,134.1-35.3,259.2-92.7,373.6c-28.7,54.6-65.9,106.3-104,157.6
		c-67.3,77.2-146.3,143.5-232,192.4c-149.2,82.8-322.8,118.6-498.3,100.2c-110.6-14.6-215-47-310.1-100.2
		c-32.9-18.3-63.5-41.4-94.1-61.6c-63.5-48.9-119-107.7-168-171.3c-8.5-14-17.6-27.7-27.3-40.9c-45.2-68.2-76.7-141.6-100.7-216.9
		c-35.3-124.7-45.6-270.1-18.8-399.9c12.2-80.9,40.9-153.9,75.3-224.4c17.9-33.9,37.2-67.3,59.3-97.9c16-28.2,38.1-51.8,58.8-76.7
		c59.8-70.1,131.7-127,208-172.7c148.7-85.6,318.5-125.6,498.7-107.7C1438.7,748.2,1535.6,778.4,1626.9,824.5L1626.9,824.5z"/>
	<path class="st2" d="M1688.5,866.8c88.9,56.5,168.4,130.3,231,219.7c91.3,126.1,140.7,270.5,152.4,431
		c8.9,159.5-24.9,311.5-93.1,445.1c-37.6,64.9-80,130.8-134.6,187.7c-179.7,187.7-429.6,279-686,253.1
		c-152.9-17.9-294.1-75.3-415.9-169.4c-56.9-45.2-108.2-100.2-151-155.3c-15.1-19.8-25.4-40.9-40-59.3
		c-31.5-49.4-54.1-101.6-75.3-153.8c-41.4-111-57.9-236.7-47.1-362.3c8.9-113.4,40-216.9,89.4-312.4c0.5-0.5,2.4,0,2.4-0.9l-0.9-1.4
		c13.2-24.9,26.3-48.9,41.9-72c9.4-12.2,15.1-25.9,24.9-37.6c43.3-55.5,89.9-109.6,145.4-152.9c27.3-24,56.9-42.3,86.1-61.6
		c14.1-12.7,32-17.4,47.1-27.8c186.3-101.6,424.4-126.1,630.9-59.3C1563.4,798.1,1627.8,829.2,1688.5,866.8L1688.5,866.8z"/>
	<path class="st3" d="M1642.4,774.6c-7.5,4.7-15.1,9.4-21.7,13.6c-4.2-8.5-8.5-16.9-10.3-25.9c8.5-2.8,16.9-5.2,26.3-8
		C1639.6,759.5,1640.5,767.5,1642.4,774.6L1642.4,774.6z M872.7,764.7c-2.8,9.4-7.5,18.8-10.8,28.7L844,781.2c0-7.5,1.4-16,4.7-22.1
		L872.7,764.7z"/>
	<path class="st1" d="M1713.4,1008.4c84.7,72.5,159.5,168.4,201.4,270.1c38.6,91.3,60.2,190.5,60.7,298.3
		c-1,127.5-36.7,241.8-88.9,349.1c-62.6,112.4-159.5,214.6-270.5,280.9c-60.2,34.8-123.7,60.7-191,79.1
		c-157.6,40.9-341.1,22.1-484.6-46.6c-39.1-18.8-75.8-41.4-112-65.4c-33.9-28.2-69.6-54.1-99.3-87c-46.6-48-82.8-100.2-112.9-153.9
		c-28.7-47.1-45.2-98.3-62.1-148.7c-30.6-101.6-38.6-225.4-18.8-333.6c9.4-59.8,28.7-114.8,48.9-168.9
		c34.3-75.3,77.2-146.8,137.8-209.4c33.9-40.5,74.8-71,115.7-102.1c13.6-7.5,25.4-18.3,39.5-25.4c146.3-90.8,334.5-125.6,510.5-91.7
		C1507.4,876.2,1616.1,928.9,1713.4,1008.4L1713.4,1008.4z"/>
	<path class="st2" d="M1628.3,954.3c3.7,2.8,0.5,0,4.2,2.8c126.1,79.1,230.5,204.7,283.7,341.1c31.5,81.4,51.3,169.9,52.7,264.9
		c1.4,114.8-25,219.7-67.8,317.6c-29.2-30.6-59.3-59.7-87.5-87.5c2.8-14.6,8.5-28.2,13.2-41.4c33.4-104.9,35.8-233.8,5.7-340.6
		c-16.5-60.7-42.3-117.2-75.3-170.3c-55.1-84.2-132.2-157.6-218.3-202.8c-21.2,20.2-40.5,43.3-61.2,64.5
		c-29.6,30.6-60.7,60.7-88.5,91.7c-60.2-23-128.9-30.1-192.9-21.6l-8-7.1l-34.3-33.9l-103.5-104l-97.4-96.9l-12.2-12.7l2.8-1.9
		c150.1-73.4,338.3-90.8,503.9-42.8C1510.7,892.7,1572.3,917.1,1628.3,954.3L1628.3,954.3z"/>
	<path class="st4" d="M1040.2,1025.8l43.3,43.8l94.1,94.1l9.9,9.9c-31.5,3.8-60.2,13.6-88.5,24.5l-33.4-32.9
		c-40.9-39.1-80.9-80-121.4-118.1c-56.5,32.5-108.2,72.9-152,125.1c-46.1,48.5-75.7,105.4-102.6,162.8l-1.4-0.5l-82.3-83.3
		c22.6-45.2,48.9-88.9,80.9-129.4c23-28.2,47.1-56.5,72.9-80.5c33.4-28.2,65.4-58.3,102.6-80c22.6-15.1,47-28.2,71.5-40.5l0.9,0.5
		L1040.2,1025.8L1040.2,1025.8z"/>
	<path class="st2" d="M1724.7,1205.6c80.9,109.6,124.2,237.1,122.8,382.1c-4.3,103-32,199-80,286.1c-0.9-1.9-1.9-0.5-2.4,0l0.5,3.3
		c-48,85.7-124.2,160.4-205.6,214.6l-6.6,3.3l-0.5-1.9l0.5-118.1c76.2-59.8,135-142.6,166.1-230.1c24.9-67.7,32.9-145.4,27.8-220.7
		c-8.9-96-43.8-181.1-99.3-255.5c-26.8-35.3-59.3-68.2-92.7-94.1h-1.4c-24.3,22.9-47.7,46.8-70.1,71.5c-27.7-20.2-58.8-36.7-88-49.4
		c34.3-37.2,69.2-73.8,104.9-109.6l40-40.9C1610.9,1083.7,1673.4,1140.2,1724.7,1205.6L1724.7,1205.6z M1180.4,1287.9
		c21.2,19.9,42.1,40.1,62.6,60.7c0.5,0.9-0.5,3.3,1.9,4.7c20.2-19.8,40.5-43.7,61.6-63.5c6.6-1.9,12.7,1.9,19.8,3.3
		c26.4,8,52.2,17.4,75.7,34.3l-1.4,2.8l-28.7,29.2l-120.9,122.8l-5.6,6.1c-20.7-16-35.8-36.2-54.1-52.7
		c-64.5-63-126.1-128.5-190.5-190.6l-66.3-66.8l-3.8,1.9c-0.5-0.9-0.9-1.9-1.4-0.9c-26.3,20.7-52.2,46.1-72.4,73.4
		c-41.4,45.6-66.3,100.2-87,156.2c-40,109.6-36.7,251.7,11.3,358c14.1,34.3,32.5,67.8,53.2,100.7c16,17.9,30.6,38.6,48,56.9
		c17.4,17.4,35.3,34.3,55.5,50.4l-0.5,119.5c-38.6-23-74.8-52.2-108.2-81.9c-31.5-34.8-62.6-70.1-86.6-106.8
		c-35.8-61.6-66.3-124.2-80.5-193.4c-32.9-143-10.8-302.5,57.4-423c26.8-57.4,71-106.8,114.8-153.8c24.9-22.6,51.8-44.2,80-63
		l29.6-17.9C1023.2,1131.7,1101.3,1209.3,1180.4,1287.9L1180.4,1287.9z"/>
	<path class="st2" d="M1456.5,1234.7c24.1,15.4,46.4,33.2,66.8,53.2v2.3c-23.5,23-47.5,45.7-70.1,69.2c-6.1-5.2-12.7-10.8-17.9-15.5
		c-38.1-31.1-80-52.2-126.1-61.6c-40.9-8-85.2-8.9-125.2,0.5c-29.2-26.8-52.7-53.2-79.5-79.5
		C1216.1,1156.2,1355.9,1168.9,1456.5,1234.7L1456.5,1234.7z"/>
	<path class="st0" d="M1582.2,1204.6c83.7,78.1,136,177.4,154.8,287.5c9.4,64,6.6,135.5-7.1,197.2l-5.2,14.6
		c-48.5-50.4-99.3-97.9-145.4-146.3c-27.8-28.2-57.4-55.5-82.8-82.8l-95-95.5l-19.3-20.7c7.5-10.4,16-18.4,24.9-26.8
		c16.4,10,31.4,22,44.7,35.7h2.3c25.8-26.1,51.8-52,78.1-77.6l-0.5-1.9c-13.7-14.6-29.6-26.3-42.3-39.1
		c20.2-23.1,42.8-45.6,65.4-66.3C1563.8,1188.1,1572.8,1196.6,1582.2,1204.6L1582.2,1204.6z"/>
	<path class="st4" d="M1001.6,1254l-0.9,2.4c-77.5,59.9-130,146.4-147.3,242.8c-12.7-9.9-25.4-23-35.3-34.3
		c-1.4-1.4-1.4-4.7-3.8-2.8l-40.9-41.9c14.1-46.1,34.8-89.4,60.7-129.9c15.1-18.8,29.2-40,46.1-56.5c15.5-17.9,32.9-34.8,51.3-48.5
		h1.9L1001.6,1254L1001.6,1254z"/>
	<path class="st1" d="M617.2,1212.1v0.5l-0.5-1.4C616.7,1211.2,617.2,1211.2,617.2,1212.1z"/>
	<path class="st2" d="M686.3,1341.5c-57.4,134.1-61.2,316.6-6.1,455c25.9,60.7,56.9,120,103,173.6c15.5,17.9,34.3,37.6,51.7,56
		c32.9,28.2,69.2,57,107.7,78.6l0.9-2.8l0.5-128.5l-1.9-2.8c-27.3-21.2-52.7-47-75.8-72.4c-24-29.6-45.2-59.3-60.7-91.3
		c-53.2-101.6-72.9-228.7-44.7-346.8l9.4-32.9l4.2,2.8c26.8,24.4,49.4,52.7,76.7,77.2c-7.1,39-7.5,85.6-0.9,127.5
		c6.1,41.4,17.4,80.9,36.2,118.1c35.8,72,98.8,141.1,172.7,178.3c24.9,14.1,52.2,24.5,80.9,33.4v179.3c38.1,0,71.5-0.5,107.8,0
		l0.5-2.8l0.5-161.8c23-1.9,44.2-3.3,67.3-6.6l61.2,61.2c50.8,53.2,104.4,104,156.2,158.6c11.8,10.8,22.6,20.7,34.8,33.9
		c-160,81.4-359,97.9-531.2,44.2c-67.8-22.1-131.3-51.3-190.1-91.3c-23.5-14.6-44.7-34.3-65.9-50.8c-49.9-43.8-95.5-95-129.9-148.2
		c-31.5-49.4-59.3-99.8-77.2-153.4c-11.3-34.8-22.6-69.2-29.2-104.9c-23.5-111-17.4-238.6,12.7-343.9c13.6-40.9,23.5-83.3,44.7-120
		C631.8,1284.1,657.6,1312.4,686.3,1341.5L686.3,1341.5z"/>
	<path class="st2" d="M1076.9,1329.8v1c-99.8,69.2-145.9,190.1-118.1,310.1c15.5,71,61.6,137.4,127,180.7
		c75.8,49.9,179.7,60.2,266.8,27.3c34.8-12.7,65.9-36.2,95.5-59.8c22.6,23.5,47,45.7,70.6,72.5c-25,28.2-58.8,47.5-90.8,66.8
		c-105.4,57.4-248.4,57.9-355.2,3.3c-45.2-23-86.6-54.1-120.5-92.7c-57.9-65.4-91.7-142.1-97.9-229.1
		c-6.1-83.7,9.9-164.2,48.9-231.5c25.4-44.2,61.6-88,102.6-118.6C1029.3,1282.7,1053.8,1304.4,1076.9,1329.8z"/>
	<path class="st4" d="M1299.4,1287c-5.2,6.1-12.2,12.3-17.4,19.3c-11.8,11.3-23.5,24-35.3,36.2c-19.8-16.5-37.2-36.7-56-54.6
		C1225.5,1279.9,1262.7,1279.9,1299.4,1287L1299.4,1287z M1214.2,1468.1c9.9,9.4,18.8,19.3,30.1,28.7l2.3-1.4
		c43.3-45.6,85.2-88.9,130.3-132.2c13.2,12.2,26.4,27.3,40.9,41.4c25.9,24,50.4,52.2,77.6,77.2c26.3,27.8,53.2,54.6,82.3,82.8
		l92.2,93.1l52.7,53.2c-15.1,52.2-37.2,101.6-68.2,148.2c-31.1,41.4-65.4,80.9-107.3,112.4l-0.9,3.8v129.4l1.4,0.9
		c103-61.6,192.9-158.6,244.2-265.3l18.3-41.4c28.7,28.2,58.8,56.9,88,88.5c-21.2,45.7-48.5,88.5-79.5,130.8
		c-66.3,85.2-151,156.2-244.2,205.1c-32.9-33.9-65.4-64-96.9-96.9l-90.8-91.7c-20.7-21.2-41.7-42.1-63-62.6l1.4-1.4
		c75.3-15.5,143.5-51.7,200.9-106.8c1.9-2.4-0.5-4.7-1.4-5.2c-25.4-27.8-51.7-52.7-76.2-78.6c-39.5,35.3-84.7,61.7-134.1,74.3
		c-21.6,4.7-42.8,6.6-64.5,8l-0.9-1.9l0.5-76.7l74.3-0.5l1.4-3.3l-0.5-101.6l-2.4-0.9h-76.7c-1.4-16.5-0.9-33.9-0.5-49.4l104.4-0.9
		l0.9-2.4l-0.5-100.7h-191l-17.4,0.5l-0.9,7.5l-0.5,255.9c-44.2-45.2-90.3-92.7-136.4-136.9l-43.8-44.2
		c-8.9-60.2,4.2-121.9,31.5-171.7c19.3-39.5,53.6-74.8,89.4-100.2C1126.7,1377.8,1168.6,1424.8,1214.2,1468.1L1214.2,1468.1z"/>
	<path class="st1" d="M443.6,1361.8l-0.5-0.9l0.5,0.5V1361.8L443.6,1361.8z M2081.9,1518.9c-0.5,0-1.4,0.9-1,0.9v-1.9
		C2080.9,1517.5,2081.4,1518,2081.9,1518.9z"/>
	<path class="st2" d="M1344.1,1531.6c0,30.6-0.9,58.3-0.5,89.4c-33.9,0.5-68.2-0.5-104,0.5c-2.3,19.8-1.4,40-0.9,60.7l1.4,1.4h78.6
		v93.6l-1.9,0.5h-72.9l-0.9,1.4l-0.5,82.8c-32.9-0.9-65.4-6.6-95-17v-314.3c64.9-1.9,129.4-0.9,195.7-0.9L1344.1,1531.6
		L1344.1,1531.6z"/>
	<path class="st1" d="M418.6,1615.4l-0.5-1C418.6,1613.5,418.6,1614.4,418.6,1615.4z"/>
	<path class="st0" d="M1096.2,1752.3l44.2,44.2v46.1c-73.4-29.2-141.6-96-166.1-169.9c-6.1-18.8-12.2-37.6-13.2-56
		C1004.9,1662.9,1052.9,1705.7,1096.2,1752.3L1096.2,1752.3z"/>
	<path class="st1" d="M1720.9,1697.2l-0.5-0.5h0.5V1697.2z M2045.6,1833.7v0.9V1833.7z"/>
	<path class="st2" d="M1242,1978.6l0.5,12.2l-0.5,147.7l-95-0.5l0.5-171.7C1177.1,1972.9,1209.5,1978.1,1242,1978.6L1242,1978.6z"/>
	<path class="st1" d="M1827.3,2163l-0.5,0.5v-1.4C1826.8,2161.1,1826.8,2162.1,1827.3,2163L1827.3,2163z M1340.8,2304.6h-1.4
		l0.5-1.4C1340.3,2302.3,1340.3,2303.2,1340.8,2304.6z M1458.9,2376.6v1V2376.6z"/>
</g>
</svg>
