<?xml version="1.0" encoding="utf-8"?>
<!-- Generator: Adobe Illustrator 24.3.0, SVG Export Plug-In . SVG Version: 6.00 Build 0)  -->
<svg version="1.1" id="Capa_1" xmlns="http://www.w3.org/2000/svg" xmlns:xlink="http://www.w3.org/1999/xlink" x="0px" y="0px"
	 viewBox="0 0 460.6 460.6" style="enable-background:new 0 0 460.6 460.6;" xml:space="preserve">
<style type="text/css">
	.st0{stroke:#3AB6AF;stroke-width:6;stroke-miterlimit:10;}
</style>
<g id="XMLID_440_">
	<path id="XMLID_478_" class="st0" d="M416.4,142.5c-2.8-11.7-14.6-18.9-26.3-16.1l-196.7,47.7l-35.6-64.5l51,9.8
		c6.8,1.3,13.6-1.8,17.1-7.6c3.5-5.9,3-13.3-1.3-18.7l-52.7-65.5c-5-6.2-13.5-7.8-20.2-4.3c2.9,10.2,2.6,20.9-0.5,30.7l20,24.9
		L140.3,73l-38.5,79.1L127,75.8c2.8-8.6-1.8-17.8-10.4-20.7c-8.6-2.8-17.8,1.8-20.7,10.4l-19,57.6l4.6-35.8c0,0,0,0-0.1,0L56.4,101
		c-6.4,4.4-14.3,11.8-12.6,22.5l11.8,70c1.3,7.9,8.1,13.6,16.1,13.6c7,0,13.3-4.5,15.5-11.2l1.7-5.2l23.1,44.7v203.3
		c0,12,9.8,21.8,21.8,21.8s21.8-9.8,21.8-21.8V228.3c0,0,2.7-0.7,244.6-59.4C412,166,419.2,154.2,416.4,142.5z"/>
	<path id="XMLID_515_" class="st0" d="M84.6,72.1l2-9.8c2.9-14.3,16.9-23.5,31.1-20.5c7.5,1.5,13.5,6.1,17.2,12.1
		c4.9-10.6,4.9-23.3-1.1-34.3C126.9,7.1,114,0,100.7,0c-6.2,0-12.5,1.5-18.3,4.7c-18.3,10.1-25,33.1-14.9,51.4
		C71.6,63.4,77.6,68.8,84.6,72.1z"/>
</g>
</svg>
